Error starting ffmpeg -loglevel +timing -y -print_graphs_file "/logs/ffmpeg-directstream-67b1359e-0529-4381-ad9c-3ab4224bcc53_1graph.txt" -copyts -start_at_zero -f matroska,webm -c:v:0 hevc -noautorotate -c:v:1 mjpeg -i "/media/dropbox/CASTELLANO/Novedades 2024/1992 (2024) [0,0 Mbps] [0,00 G].mkv" -map 0:0 -map 0:1 -sn -c:v:0 copy -c:a:0 copy -metadata:s:a:0 language=spa -disposition:a:0 default -avoid_negative_ts disabled -f mp4 -map_metadata -1 -map_chapters -1 -vtag hvc1 -movflags +empty_moov+frag_keyframe "/transcoding-temp/X683C84/X683C84.mp4" 23:20:18.118 ffmpeg version 5.1-emby_2023_06_25 Copyright (c) 2000-2022 the FFmpeg developers and softworkz for Emby LLC 23:20:18.118 built with gcc 10.3.0 (crosstool-NG 1.25.0) 23:20:18.118 Execution Date: 2025-06-25 23:20:18 23:20:18.844 [matroska,webm @ 0x3e63a640] Could not find codec parameters for stream 4 (Subtitle: hdmv_pgs_subtitle (pgssub)): unspecified size Consider increasing the value for the 'analyzeduration' (0) and 'probesize' (5000000) options 23:20:18.844 [matroska,webm @ 0x3e63a640] Could not find codec parameters for stream 6 (Subtitle: hdmv_pgs_subtitle (pgssub)): unspecified size Consider increasing the value for the 'analyzeduration' (0) and 'probesize' (5000000) options 23:20:18.844 [matroska,webm @ 0x3e63a640] Could not find codec parameters for stream 7 (Subtitle: hdmv_pgs_subtitle (pgssub)): unspecified size Consider increasing the value for the 'analyzeduration' (0) and 'probesize' (5000000) options 23:20:18.845 Input #0, matroska,webm, from '/media/dropbox/CASTELLANO/Novedades 2024/1992 (2024) [0,0 Mbps] [0,00 G].mkv': 23:20:18.845 Metadata: 23:20:18.845 title : 1992 - Blu-ray™ 23:20:18.845 ENCODER : Lavf60.20.100 23:20:18.845 Duration: 01:37:11.91, start: 0.000000, bitrate: 3391 kb/s 23:20:18.845 Stream #0:0: Video: hevc (Main), yuv420p(tv, bt709, progressive), 1920x1080 [SAR 1:1 DAR 16:9], Level 120, 23.98 fps, 23.98 tbr, 1k tbn (default) 23:20:18.845 Metadata: 23:20:18.845 ENCODER : Lavc60.39.100 hevc_nvenc 23:20:18.845 DURATION : 01:37:11.910000000 23:20:18.845 Stream #0:1(spa): Audio: ac3, 48000 Hz, 5.1(side), fltp, 640 kb/s 23:20:18.845 Metadata: 23:20:18.845 title : DD 5.1 23:20:18.845 HANDLER : DD 5.1 23:20:18.845 DURATION : 01:37:09.856000000 23:20:18.845 Stream #0:2(eng): Audio: ac3, 48000 Hz, 5.1(side), fltp, 384 kb/s 23:20:18.845 Metadata: 23:20:18.845 title : DD 5.1 23:20:18.845 HANDLER : DD 5.1 23:20:18.845 DURATION : 01:37:09.824000000 23:20:18.845 Stream #0:3(spa): Subtitle: subrip (default) (forced) 23:20:18.845 Metadata: 23:20:18.845 DURATION : 01:37:04.868000000 23:20:18.845 Stream #0:4(spa): Subtitle: hdmv_pgs_subtitle 23:20:18.845 Metadata: 23:20:18.845 DURATION : 01:37:04.823000000 23:20:18.845 Stream #0:5(spa): Subtitle: subrip 23:20:18.845 Metadata: 23:20:18.845 DURATION : 01:37:04.868000000 23:20:18.845 Stream #0:6(spa): Subtitle: hdmv_pgs_subtitle 23:20:18.845 Metadata: 23:20:18.845 DURATION : 01:37:04.823000000 23:20:18.845 Stream #0:7(eng): Subtitle: hdmv_pgs_subtitle 23:20:18.845 Metadata: 23:20:18.845 DURATION : 01:37:03.192000000 23:20:18.845 Stream #0:8: Video: mjpeg (Baseline), yuvj420p(pc, bt470bg/unknown/unknown), 640x360 [SAR 72:72 DAR 16:9], 90k tbr, 90k tbn (attached pic) 23:20:18.845 Metadata: 23:20:18.845 filename : cover.jpg 23:20:18.845 mimetype : image/jpeg 23:20:18.845 [mp4 @ 0x3e6d5e80] No meaningful edit list will be written when using empty_moov without delay_moov 23:20:18.845 [mp4 @ 0x3e6d5e80] track 1: codec frame size is not set 23:20:18.845 [mp4 @ 0x3e6d5e80] Cannot write moov atom before AC3 packets. Set the delay_moov flag to fix this. 23:20:18.845 Could not write header for output file #0 (incorrect codec parameters ?): Invalid argument 23:20:18.845 Error initializing output stream 0:1 -- 23:20:18.845 Stream mapping: 23:20:18.845 Stream #0:0 -> #0:0 (copy) 23:20:18.845 Stream #0:1 -> #0:1 (copy) Last message repeated 1 times 23:20:18.845 Execution Date: 2025-06-25